# xmcd CD database file
#
# Track frame offsets:
#	150
#	11159
#	30024
#	52236
#	62378
#	84650
#	96942
#	114769
#	124766
#	141578
#	142480
#	154539
#	163607
#	180802
#	198827
#	204132
#	230419
#	253967
#	262019
#	287344
#	303832
#	317529
#	321944
#
# Disc length: 4480 seconds
#
# Revision: 1
# Processed by: cddbd v1.5.2PL0 Copyright (c) Steve Scherf et al.
# Submitted via: CDex 1.51
#
DISCID=39117e17
DTITLE=Andreas Vollenweider - Down to the Moon - Dancing With The Lion (Special Double Album)
DYEAR=1984
DGENRE=New Age
TTITLE0=Down To The Moon
TTITLE1=Moon Dance
TTITLE2=Stream Forest
TTITLE3=Water Moon
TTITLE4=Night Fire Dance
TTITLE5=Quiet Observer
TTITLE6=Silver Wheel
TTITLE7=Drown In The Pale Light
TTITLE8=The Secret, The Candle And Love
TTITLE9=Hush - Patience At Bamboo Forest
TTITLE10=Three Silver Ladies Dance
TTITLE11=La Lune et l'Enfant
TTITLE12=Unto The Burning Circle
TTITLE13=Dancing With The Lion
TTITLE14=Hippolyte
TTITLE15=Dance Of The Masks
TTITLE16=Pearls and Tears
TTITLE17=Garden Of My Childood
TTITLE18=Still Life
TTITLE19=And The Long Shadows
TTITLE20=See, My Love...
TTITLE21=Silver Dew, Golden Grass
TTITLE22=Ascent From The Circle
EXTD=YEAR: 1984
EXTT0=
EXTT1=
EXTT2=
EXTT3=
EXTT4=
EXTT5=
EXTT6=
EXTT7=
EXTT8=
EXTT9=
EXTT10=
EXTT11=
EXTT12=
EXTT13=
EXTT14=
EXTT15=
EXTT16=
EXTT17=
EXTT18=
EXTT19=
EXTT20=
EXTT21=
EXTT22=
PLAYORDER=
